<svg xmlns="http://www.w3.org/2000/svg" width="19.63" height="17.19" viewBox="0 0 19.63 17.19">
  <defs>
    <style>
      .cls-1 {
        fill: #ed2647;
      }
    </style>
  </defs>
  <g id="Layer_2" data-name="Layer 2">
    <g id="icon-0">
      <g id="tight-bounds">
        <g>
          <path class="cls-1" d="M11.5,16.66v.15h3.22v-.15ZM19.57,5.09,16.43.16A.22.22,0,0,0,16.21,0H3.42a.21.21,0,0,0-.21.16L.1,5.07a2.1,2.1,0,0,0-.1.44c0,1.92,2,.89,2.82.89.13,0,.16.22.16,1v4.27c.06,2.3.27.69,1,.69-.15-.31,0-3.63,0-4h0V6.26A1.3,1.3,0,0,0,5,6.87H7.69c.4,0,.75-.48.92-.75a1.69,1.69,0,0,0,.75.65,1.23,1.23,0,0,0,.46.1,1.14,1.14,0,0,0,.45-.1A1.62,1.62,0,0,0,11,6.12c.17.27.37.75.88.75.16,0,2.52,0,2.62,0h.09a1.28,1.28,0,0,0,1.08-.61V8.39h0c0,.34.36.67.23,1,.6,0,.56,2.3.7,2.3h0l0-4.25c0-.67.27-1,.4-1,.8,0,2.58,1,2.58-.9A2.23,2.23,0,0,0,19.57,5.09Zm-18.3.16L3.85.84H4.94L3.14,5.25Zm6.47,0H4.26L5.92.84H8.16Zm1.11,0L9.14.84h1.31l.27,4.41Zm3,0L11.43.84h2.24l1.65,4.41Zm4.6,0L14.65.84h1.09l2.57,4.41ZM11.5,16.81h3.22v-.15H11.5Z"/>
          <path class="cls-1" d="M9.82,6.87a1.23,1.23,0,0,1-.46-.1h.91A1.14,1.14,0,0,1,9.82,6.87Z"/>
          <path class="cls-1" d="M16.6,8.38v6a2.76,2.76,0,0,1-2.76,2.76H5.72A2.62,2.62,0,0,1,3,14.43V6.09C3,8.26,3,8.14,3,8c.08-.7.2,4.43.71,4l.23-3.64v2.3A27.38,27.38,0,0,0,4.19,14a2.74,2.74,0,0,0,2.5,1.6h6.23A2.77,2.77,0,0,0,15.44,14a2.87,2.87,0,0,0,.23-1l0-4.6V7.5C16.25,8,16.6,7.58,16.6,8.38Z"/>
          <path class="cls-1" d="M11.45,15.45a1.36,1.36,0,0,1-1.36,1.36h0a1.36,1.36,0,0,1-1.36-1.36V13.12a1.36,1.36,0,0,1,1.36-1.37h0a1.36,1.36,0,0,1,1.36,1.37Z"/>
          <path class="cls-1" d="M14.82,8.41a.49.49,0,0,1-.49.49h-9a.49.49,0,0,1-.49-.49h0a.49.49,0,0,1,.49-.49h9a.49.49,0,0,1,.49.49Z"/>
          <path class="cls-1" d="M14.82,10a.49.49,0,0,1-.49.49h-9A.49.49,0,0,1,4.82,10h0a.49.49,0,0,1,.49-.49h9a.49.49,0,0,1,.49.49Z"/>
        </g>
      </g>
    </g>
  </g>
</svg>
